# xmcd
#
# Track frame offsets: 
#        150
#        14421
#        29681
#        43657
#        57694
#        68647
#        80362
#        93035
#        107318
#        115041
#        133695
#        149405
#        171555
#
# Disc length: 2488 seconds
#
# Revision: 0
# Processed by: cddbd v1.5.2PL0 Copyright (c) Steve Scherf et al.
# Submitted via: ExactAudioCopy v0.99pb1
#
DISCID=b109b60d
DTITLE=Dooley Wilson - Whiteface
DYEAR=1900
DGENRE=Blues
TTITLE0=Brooks Run To The Ocean
TTITLE1=Louise
TTITLE2=Goin' Down To The River
TTITLE3=Dockery Blues
TTITLE4=How Long
TTITLE5=Statesboro Blues
TTITLE6=61 Highway
TTITLE7=Hobo Blues
TTITLE8=Step It Up and Go
TTITLE9=Straight Outta Parchman
TTITLE10=Louise
TTITLE11=Long Distance Call
TTITLE12=Rollin' and Tumblim'
EXTD=
EXTT0=
EXTT1=
EXTT2=
EXTT3=
EXTT4=
EXTT5=
EXTT6=
EXTT7=
EXTT8=
EXTT9=
EXTT10=
EXTT11=
EXTT12=
PLAYORDER=
